<?xml version="1.0" standalone="no"?>
<!DOCTYPE svg PUBLIC "-//W3C//DTD SVG 20010904//EN"
 "http://www.w3.org/TR/2001/REC-SVG-20010904/DTD/svg10.dtd">
<svg version="1.0" xmlns="http://www.w3.org/2000/svg"
 width="512.000000pt" height="512.000000pt" viewBox="0 0 512.000000 512.000000"
 preserveAspectRatio="xMidYMid meet">
<metadata>
Created by potrace 1.14, written by Peter Selinger 2001-2017
</metadata>
<g transform="translate(0.000000,512.000000) scale(0.100000,-0.100000)"
fill="#000000" stroke="none">
<path d="M372 4461 c-72 -25 -141 -86 -177 -156 l-30 -59 -3 -1672 -2 -1673
21 -56 c29 -78 106 -155 182 -183 l58 -22 2152 2 2152 3 47 24 c85 41 143 108
172 197 15 46 16 187 14 1715 l-3 1664 -25 50 c-30 62 -91 122 -156 155 l-49
25 -2150 2 c-2060 2 -2152 2 -2203 -16z"/>
</g>
</svg>
