<?xml version="1.0" standalone="no"?>
<!DOCTYPE svg PUBLIC "-//W3C//DTD SVG 20010904//EN"
 "http://www.w3.org/TR/2001/REC-SVG-20010904/DTD/svg10.dtd">
<svg version="1.0" xmlns="http://www.w3.org/2000/svg"
 width="512.000000pt" height="512.000000pt" viewBox="0 0 512.000000 512.000000"
 preserveAspectRatio="xMidYMid meet">
<metadata>
Created by potrace 1.14, written by Peter Selinger 2001-2017
</metadata>
<g transform="translate(0.000000,512.000000) scale(0.100000,-0.100000)"
fill="#000000" stroke="none">
<path d="M317 4899 c-108 -39 -196 -140 -213 -246 -4 -21 -7 -767 -7 -1658 0
-1518 1 -1623 17 -1673 36 -107 130 -192 240 -217 36 -8 264 -11 763 -10 653
0 712 -1 708 -16 -3 -9 -54 -113 -114 -230 l-109 -214 -180 -5 c-99 -3 -182
-7 -185 -10 -19 -21 -24 -67 -23 -213 1 -161 2 -170 23 -186 20 -17 96 -18
1326 -18 1088 0 1307 2 1323 14 17 12 19 30 20 186 1 150 -4 196 -23 217 -3 3
-86 7 -185 10 l-180 5 -114 225 c-62 124 -114 227 -114 230 0 3 316 5 703 5
386 0 726 3 755 7 65 10 120 37 171 84 39 35 88 120 98 171 8 43 7 3253 -1
3298 -18 95 -99 194 -194 238 l-47 21 -2205 1 c-2075 1 -2208 1 -2253 -16z"/>
</g>
</svg>
